<svg version="1.2" xmlns="http://www.w3.org/2000/svg" viewBox="0 0 4501 4500" width="64" height="64">
	<style>
		.s0 { fill: #ffffff } 
	</style>
	<filter id="f0">
		<feFlood flood-color="#ffffff" flood-opacity="1" />
		<feBlend mode="normal" in2="SourceGraphic"/>
		<feComposite in2="SourceAlpha" operator="in" />
	</filter>
	<g id="Folder 1" filter="url(#f0)">
		<g>
			<path fill-rule="evenodd" class="s0" d="m1917.5 24.5q1.5-0.13 2.5 1 3 5 6 10 1262.25 2163.5 2524.5 4327-747.5 1.62-1495-1-438.49-806.98-878.5-1613-218.68-360.16-609.5-518.5-362.6-139.11-741-51-92.54 22.35-180.5 58.5-0.75-0.5-1.5-1 687.29-1105.58 1373-2212z"/>
		</g>
		<g>
			<path fill-rule="evenodd" class="s0" d="m834.5 2928.5q417.09-0.11 775 212 11.35 461.14-236.5 849-198.33 303.85-512 485-320.78-165.73-533-459-272.53-385.12-278-859 306.78-191.76 668.5-222.5 58.16-4.39 116-5.5z"/>
		</g>
	</g>
</svg>